<svg xmlns="http://www.w3.org/2000/svg" viewBox="0 0 48 48" fill="none" role="img" aria-label="Doc Flow">
  <defs>
    <linearGradient id="paper" x1="8" y1="6" x2="40" y2="42" gradientUnits="userSpaceOnUse">
      <stop stop-color="#fff7ed"/>
      <stop offset="1" stop-color="#ffedd5"/>
    </linearGradient>
    <linearGradient id="cloud" x1="28" y1="4" x2="44" y2="20" gradientUnits="userSpaceOnUse">
      <stop stop-color="#fdba74"/>
      <stop offset="1" stop-color="#f97316"/>
    </linearGradient>
  </defs>
  <rect x="4" y="4" width="40" height="40" rx="10" fill="#1c0a00"/>
  <path d="M10 8h22l6 6v28a2 2 0 0 1-2 2H10a2 2 0 0 1-2-2V10a2 2 0 0 1 2-2z" fill="url(#paper)" stroke="#fdba74" stroke-width="1.25"/>
  <path d="M32 8v6h6" fill="#fed7aa" stroke="#fdba74" stroke-width="1.25" stroke-linejoin="round"/>
  <path d="M13 18h18M13 23h16M13 28h13" stroke="#9a3412" stroke-width="1.75" stroke-linecap="round" opacity="0.85"/>
  <path d="M30 30l8-8 2.5 2.5-8 8H30v-2.5z" fill="#ea580c"/>
  <path d="M36.5 20.5l2.5 2.5" stroke="#fff7ed" stroke-width="1.5" stroke-linecap="round"/>
  <path d="M29 7c1.8-2.2 5.2-2.4 7.2-.5 1.3 1.2 1.8 3 1.4 4.7 1.7.2 3.1 1.5 3.3 3.3.3 2.5-1.7 4.6-4.2 4.6H29" fill="url(#cloud)"/>
  <circle cx="31.5" cy="11.5" r="1.1" fill="#fff7ed" opacity="0.9"/>
</svg>
